<svg width="576" height="135" viewBox="0 0 576 135" fill="none" xmlns="http://www.w3.org/2000/svg">
<path d="M23.1957 84.8857C19.1358 90.9674 9.94655 96.3003 5.85942 98.2066C20.6772 106.298 63.3856 106.802 77.1393 99.4434C90.8929 92.0853 95.2791 88.8371 102.475 75.51C108.232 64.8483 106.815 49.7144 105.388 43.4802C103.556 48.3305 97.9387 60.9767 90.1294 72.7585C82.32 84.5403 63.9026 90.5774 55.6701 92.1232C63.1481 88.9068 79.8954 79.4925 87.0606 67.5671C94.2259 55.6417 99.562 43.4965 101.334 38.9146C98.6123 35.9603 90.7405 29.567 81.0309 27.6284C68.8938 25.2051 55.9776 28.8059 44.8724 45.7692C33.7672 62.7326 28.2705 77.2835 23.1957 84.8857Z" fill="#9CD863"/>
<path d="M113.074 97.244C110.866 96.6 109.325 95.956 108.451 95.312C107.623 94.668 107.209 93.863 107.209 92.897C107.209 92.161 107.416 91.126 107.83 89.792C108.244 88.458 108.842 86.894 109.624 85.1C110.452 83.26 111.418 81.236 112.522 79.028C113.672 76.82 114.96 74.451 116.386 71.921C115.19 71.875 114.109 71.852 113.143 71.852C112.223 71.806 111.464 71.783 110.866 71.783C111.142 71.093 111.924 70.495 113.212 69.989C114.5 69.483 116.202 69.046 118.318 68.678C120.112 65.688 122.021 62.836 124.045 60.122C126.115 57.408 128.185 54.924 130.255 52.67C132.325 50.37 134.395 48.369 136.465 46.667C138.535 44.919 140.513 43.539 142.399 42.527C142.445 42.205 142.468 41.929 142.468 41.699C142.514 41.469 142.537 41.308 142.537 41.216C143.181 41.216 144.032 41.377 145.09 41.699C146.194 42.021 147.252 42.412 148.264 42.872C149.322 43.332 150.242 43.815 151.024 44.321C151.852 44.781 152.312 45.172 152.404 45.494C150.886 48.162 149.391 52.164 147.919 57.5C146.447 62.79 145.228 69.138 144.262 76.544C144.032 78.384 143.825 80.477 143.641 82.823C143.503 85.169 143.434 87.791 143.434 90.689C143.434 91.701 143.434 92.736 143.434 93.794C143.434 94.852 143.48 95.956 143.572 97.106C143.48 97.152 143.388 97.175 143.296 97.175C143.204 97.175 143.02 97.175 142.744 97.175C142.1 97.175 141.341 97.06 140.467 96.83C139.639 96.646 138.811 96.393 137.983 96.071C137.201 95.795 136.511 95.473 135.913 95.105C135.361 94.737 135.016 94.415 134.878 94.139C134.832 93.541 134.809 92.943 134.809 92.345C134.809 91.793 134.809 91.195 134.809 90.551C134.809 87.699 134.901 84.801 135.085 81.857C135.315 78.913 135.683 75.877 136.189 72.749C135.545 72.703 134.694 72.657 133.636 72.611C132.578 72.519 131.382 72.45 130.048 72.404C128.76 72.358 127.357 72.312 125.839 72.266C124.367 72.174 122.918 72.105 121.492 72.059C120.388 74.129 119.353 76.199 118.387 78.269C117.421 80.293 116.593 82.34 115.903 84.41C115.121 86.618 114.477 88.826 113.971 91.034C113.511 93.242 113.212 95.312 113.074 97.244ZM139.708 55.775C139.892 55.131 140.099 54.257 140.329 53.153C140.605 52.003 140.858 50.807 141.088 49.565C139.938 49.979 138.65 50.738 137.224 51.842C135.844 52.946 134.395 54.326 132.877 55.982C131.405 57.592 129.887 59.432 128.323 61.502C126.805 63.526 125.333 65.688 123.907 67.988C127.771 67.666 132.164 67.459 137.086 67.367C137.454 65.435 137.845 63.526 138.259 61.64C138.719 59.708 139.202 57.753 139.708 55.775ZM147.523 87.584C147.523 85.56 148.006 82.731 148.972 79.097C149.938 75.417 151.295 71.139 153.043 66.263C155.895 58.489 158.563 52.026 161.047 46.874C163.577 41.676 166.038 37.628 168.43 34.73C168.982 34.822 169.649 35.052 170.431 35.42C171.259 35.788 172.064 36.202 172.846 36.662C173.628 37.076 174.318 37.513 174.916 37.973C175.56 38.433 175.974 38.801 176.158 39.077C172.57 43.309 169.419 47.863 166.705 52.739C163.991 57.615 161.507 63.204 159.253 69.506C157.321 74.934 155.849 79.833 154.837 84.203C153.825 88.527 153.319 92.138 153.319 95.036C153.319 95.818 153.319 96.301 153.319 96.485C153.319 96.669 153.342 96.853 153.388 97.037C152.744 96.945 152.192 96.784 151.732 96.554C151.272 96.324 150.973 96.048 150.835 95.726C150.743 95.496 150.49 95.151 150.076 94.691C149.662 94.277 149.294 93.955 148.972 93.725C148.558 93.449 148.213 92.736 147.937 91.586C147.661 90.39 147.523 89.056 147.523 87.584ZM182.949 64.124C183.409 64.124 183.938 64.216 184.536 64.4C185.18 64.538 185.755 64.745 186.261 65.021C186.767 65.251 187.181 65.504 187.503 65.78C187.871 66.056 188.055 66.309 188.055 66.539C187.135 68.471 186.284 70.426 185.502 72.404C184.72 74.336 184.053 76.199 183.501 77.993C182.949 79.787 182.512 81.466 182.19 83.03C181.914 84.594 181.776 85.951 181.776 87.101C181.776 88.389 181.914 89.47 182.19 90.344C182.466 91.172 182.926 91.77 183.57 92.138C183.018 92.506 182.305 92.805 181.431 93.035C180.557 93.265 179.775 93.38 179.085 93.38C176.601 93.38 175.359 91.678 175.359 88.274C175.359 85.652 176.233 82.064 177.981 77.51C177.061 79.626 176.003 81.627 174.807 83.513C173.611 85.353 172.392 86.986 171.15 88.412C169.908 89.838 168.643 91.011 167.355 91.931C166.113 92.805 164.963 93.334 163.905 93.518C162.203 93.426 160.823 92.621 159.765 91.103C158.707 89.539 158.178 87.561 158.178 85.169C158.178 82.593 158.73 79.879 159.834 77.027C160.938 74.175 162.341 71.53 164.043 69.092C165.791 66.654 167.677 64.63 169.701 63.02C171.725 61.364 173.68 60.49 175.566 60.398C176.026 60.536 176.532 60.812 177.084 61.226C177.682 61.64 178.234 62.123 178.74 62.675C179.292 63.227 179.752 63.802 180.12 64.4C180.488 64.952 180.695 65.435 180.741 65.849C178.901 66.125 176.992 67.022 175.014 68.54C173.082 70.058 171.311 71.898 169.701 74.06C168.137 76.176 166.849 78.453 165.837 80.891C164.825 83.329 164.319 85.606 164.319 87.722C164.319 88.596 164.641 89.148 165.285 89.378C166.619 89.102 168.16 87.975 169.908 85.997C171.656 83.973 173.772 80.868 176.256 76.682C176.716 75.854 177.222 74.934 177.774 73.922C178.372 72.91 178.97 71.852 179.568 70.748C180.166 69.644 180.741 68.54 181.293 67.436C181.891 66.286 182.443 65.182 182.949 64.124ZM226.952 70.817C226.216 70.863 225.319 71.346 224.261 72.266C223.203 73.14 222.053 74.29 220.811 75.716C219.615 77.096 218.35 78.637 217.016 80.339C215.728 82.041 214.463 83.743 213.221 85.445C212.025 87.101 210.898 88.665 209.84 90.137C208.782 91.609 207.885 92.782 207.149 93.656C206.137 93.242 205.263 92.644 204.527 91.862C203.791 91.034 203.262 90.022 202.94 88.826C203.17 87.4 203.492 85.928 203.906 84.41C204.32 82.846 204.849 81.236 205.493 79.58C206.183 77.924 207.011 76.199 207.977 74.405C208.989 72.565 210.208 70.633 211.634 68.609C210.944 68.655 210.001 69.161 208.805 70.127C207.609 71.047 206.321 72.266 204.941 73.784C203.561 75.256 202.135 76.935 200.663 78.821C199.191 80.661 197.811 82.478 196.523 84.272C194.821 86.664 193.395 88.757 192.245 90.551C191.141 92.345 190.336 93.403 189.83 93.725C188.634 92.851 187.806 91.908 187.346 90.896C186.886 89.884 186.541 88.757 186.311 87.515C186.357 86.411 186.518 85.031 186.794 83.375C187.116 81.719 187.553 80.017 188.105 78.269C189.163 74.911 190.52 71.576 192.176 68.264C193.878 64.952 195.511 61.916 197.075 59.156C198.363 59.432 199.513 59.869 200.525 60.467C201.583 61.065 202.687 61.939 203.837 63.089C203.377 64.515 202.664 66.033 201.698 67.643C200.732 69.207 199.72 70.863 198.662 72.611C197.604 74.359 196.638 76.153 195.764 77.993C194.89 79.833 194.315 81.696 194.039 83.582C195.327 81.742 196.845 79.626 198.593 77.234C200.387 74.842 202.204 72.588 204.044 70.472C205.93 68.356 207.793 66.562 209.633 65.09C211.473 63.618 213.129 62.882 214.601 62.882C215.153 62.882 215.751 62.974 216.395 63.158C217.039 63.342 217.637 63.572 218.189 63.848C218.741 64.124 219.201 64.4 219.569 64.676C219.937 64.906 220.144 65.09 220.19 65.228C219.96 66.148 219.408 67.413 218.534 69.023C217.706 70.587 216.809 72.243 215.843 73.991C214.877 75.739 213.98 77.441 213.152 79.097C212.324 80.707 211.841 81.995 211.703 82.961C213.957 79.879 216.073 77.096 218.051 74.612C220.029 72.082 221.892 69.92 223.64 68.126C225.388 66.332 226.998 64.952 228.47 63.986C229.988 63.02 231.414 62.537 232.748 62.537C233.668 62.537 234.519 62.79 235.301 63.296C236.129 63.756 236.704 64.446 237.026 65.366C236.612 66.746 235.922 68.402 234.956 70.334C234.036 72.266 233.093 74.313 232.127 76.475C231.161 78.591 230.287 80.684 229.505 82.754C228.769 84.824 228.401 86.687 228.401 88.343C228.401 89.309 228.539 89.953 228.815 90.275C229.091 90.551 229.482 90.689 229.988 90.689C230.54 90.689 231.046 90.597 231.506 90.413C232.012 90.183 232.38 90.068 232.61 90.068C232.886 90.252 233.047 90.482 233.093 90.758C233.139 91.034 233.162 91.287 233.162 91.517C232.242 92.253 231.299 92.851 230.333 93.311C229.367 93.817 228.286 94.07 227.09 94.07C225.986 94.07 225.066 93.886 224.33 93.518C223.64 93.15 223.065 92.644 222.605 92C222.145 91.356 221.823 90.62 221.639 89.792C221.455 88.964 221.363 88.067 221.363 87.101C221.363 85.537 221.57 83.996 221.984 82.478C222.398 80.914 222.881 79.442 223.433 78.062C224.031 76.636 224.652 75.325 225.296 74.129C225.94 72.887 226.492 71.783 226.952 70.817ZM295.119 53.981C295.119 56.833 294.337 59.386 292.773 61.64C291.209 63.848 289.07 65.688 286.356 67.16C288.104 68.356 289.484 69.828 290.496 71.576C291.554 73.278 292.083 75.164 292.083 77.234C292.083 79.718 291.324 82.179 289.806 84.617C288.334 87.009 286.356 89.148 283.872 91.034C281.388 92.874 278.559 94.369 275.385 95.519C272.211 96.669 268.968 97.244 265.656 97.244C262.068 97.244 258.917 96.554 256.203 95.174C253.535 93.84 251.442 91.931 249.924 89.447C250.384 88.067 250.982 86.365 251.718 84.341C252.5 82.271 253.351 80.109 254.271 77.855C255.191 75.555 256.111 73.278 257.031 71.024C257.997 68.77 258.894 66.746 259.722 64.952C261.47 61.042 263.034 57.799 264.414 55.223C265.794 52.647 267.059 50.6 268.209 49.082C265.679 49.864 263.379 50.761 261.309 51.773C259.239 52.739 257.721 53.682 256.755 54.602C256.341 54.326 255.904 53.912 255.444 53.36C255.03 52.808 254.616 52.21 254.202 51.566C253.834 50.876 253.512 50.186 253.236 49.496C253.006 48.806 252.868 48.185 252.822 47.633C254.018 46.805 255.559 46.023 257.445 45.287C259.377 44.505 261.47 43.838 263.724 43.286C265.978 42.734 268.278 42.297 270.624 41.975C273.016 41.653 275.293 41.492 277.455 41.492C282.975 41.492 287.299 42.596 290.427 44.804C293.555 47.012 295.119 50.071 295.119 53.981ZM268.83 70.472C267.956 70.058 267.151 69.437 266.415 68.609C265.357 70.955 264.345 73.255 263.379 75.509C262.459 77.763 261.631 79.856 260.895 81.788C260.159 83.72 259.561 85.399 259.101 86.825C258.641 88.251 258.388 89.286 258.342 89.93C258.986 90.298 259.745 90.574 260.619 90.758C261.539 90.942 262.666 91.034 264 91.034C267.128 91.034 270.118 90.597 272.97 89.723C275.822 88.849 278.329 87.676 280.491 86.204C282.653 84.686 284.378 82.961 285.666 81.029C286.954 79.097 287.598 77.073 287.598 74.957C287.598 71.921 286.287 69.736 283.665 68.402C280.077 69.874 276.029 70.61 271.521 70.61C270.877 70.61 270.371 70.61 270.003 70.61C269.681 70.61 269.29 70.564 268.83 70.472ZM282.216 46.529C281.25 46.529 280.215 46.598 279.111 46.736C278.053 46.828 276.926 46.989 275.73 47.219C275.914 47.403 276.052 47.61 276.144 47.84C276.282 48.024 276.397 48.231 276.489 48.461C276.075 49.013 275.569 49.818 274.971 50.876C274.373 51.934 273.706 53.176 272.97 54.602C272.234 55.982 271.452 57.523 270.624 59.225C269.842 60.927 269.037 62.675 268.209 64.469C268.991 64.285 269.934 64.147 271.038 64.055C272.188 63.917 273.315 63.848 274.419 63.848C275.017 63.848 275.592 63.871 276.144 63.917C276.742 63.963 277.317 64.032 277.869 64.124C280.077 63.756 282.055 63.227 283.803 62.537C285.597 61.801 287.138 60.973 288.426 60.053C289.714 59.087 290.703 58.029 291.393 56.879C292.083 55.729 292.428 54.51 292.428 53.222C292.428 51.014 291.554 49.358 289.806 48.254C288.058 47.104 285.528 46.529 282.216 46.529ZM291.941 87.377C291.941 86.963 291.964 86.457 292.01 85.859C292.102 85.215 292.24 84.387 292.424 83.375C292.608 82.317 292.838 81.052 293.114 79.58C293.436 78.108 293.827 76.337 294.287 74.267C294.379 73.807 294.586 73.071 294.908 72.059C295.23 71.047 295.644 69.989 296.15 68.885C296.702 67.735 297.346 66.631 298.082 65.573C298.864 64.515 299.784 63.733 300.842 63.227C301.624 63.411 302.659 63.894 303.947 64.676C305.235 65.412 306.339 66.447 307.259 67.781C306.201 68.977 305.304 70.173 304.568 71.369C303.878 72.565 303.234 73.807 302.636 75.095C302.084 76.383 301.555 77.717 301.049 79.097C300.589 80.477 300.06 81.926 299.462 83.444C298.956 84.732 298.496 86.066 298.082 87.446C297.668 88.78 297.438 89.953 297.392 90.965C297.392 91.793 297.369 92.368 297.323 92.69C297.323 93.058 297.208 93.242 296.978 93.242C296.794 93.242 296.426 93.127 295.874 92.897C295.322 92.667 294.747 92.322 294.149 91.862C293.597 91.356 293.091 90.735 292.631 89.999C292.171 89.263 291.941 88.389 291.941 87.377ZM305.12 57.431C305.12 57.155 305.189 56.741 305.327 56.189C305.097 55.959 304.89 55.614 304.706 55.154C304.568 54.694 304.499 54.28 304.499 53.912C304.499 53.498 304.545 52.946 304.637 52.256C304.775 51.52 304.936 50.738 305.12 49.91C305.304 49.082 305.534 48.231 305.81 47.357C306.086 46.437 306.362 45.609 306.638 44.873C307.19 44.873 307.857 45.034 308.639 45.356C309.467 45.632 310.295 46.023 311.123 46.529C311.951 46.989 312.71 47.518 313.4 48.116C314.09 48.668 314.619 49.197 314.987 49.703C314.481 50.209 313.814 50.922 312.986 51.842C312.158 52.716 311.353 53.659 310.571 54.671C309.789 55.637 309.076 56.557 308.432 57.431C307.788 58.305 307.374 58.926 307.19 59.294C306.638 59.202 306.155 58.972 305.741 58.604C305.327 58.19 305.12 57.799 305.12 57.431ZM327.499 64.538C327.453 65.412 327.292 66.332 327.016 67.298C326.786 68.218 326.487 69.069 326.119 69.851C325.751 70.587 325.36 71.208 324.946 71.714C324.532 72.22 324.141 72.473 323.773 72.473C323.267 72.427 322.968 72.082 322.876 71.438C322.876 71.3 322.922 71.093 323.014 70.817C323.152 70.495 323.29 70.15 323.428 69.782C323.566 69.414 323.681 69.046 323.773 68.678C323.911 68.31 323.98 67.988 323.98 67.712C323.98 67.068 323.819 66.539 323.497 66.125C323.221 65.665 322.83 65.435 322.324 65.435C320.484 65.435 319.081 66.585 318.115 68.885C317.149 71.185 316.666 74.566 316.666 79.028C316.666 79.488 316.689 79.764 316.735 79.856C317.701 79.81 318.552 79.787 319.288 79.787C320.07 79.741 320.829 79.718 321.565 79.718C321.611 79.81 321.634 79.994 321.634 80.27C321.634 80.684 321.542 80.983 321.358 81.167C320.3 81.397 319.449 81.604 318.805 81.788C318.207 81.926 317.747 82.064 317.425 82.202C317.103 82.34 316.896 82.501 316.804 82.685C316.758 82.823 316.735 83.03 316.735 83.306C316.735 83.674 316.735 84.042 316.735 84.41C316.781 84.778 316.804 85.238 316.804 85.79C316.804 89.654 315.746 92.759 313.63 95.105C311.56 97.451 308.662 98.808 304.936 99.176C304.292 99.13 303.625 98.946 302.935 98.624C302.245 98.302 301.578 97.888 300.934 97.382C300.336 96.876 299.807 96.301 299.347 95.657C298.887 95.059 298.565 94.438 298.381 93.794C298.381 92.046 298.749 90.39 299.485 88.826C300.221 87.216 301.21 85.813 302.452 84.617C303.74 83.375 305.235 82.386 306.937 81.65C308.685 80.868 310.571 80.408 312.595 80.27C312.595 79.12 312.48 77.993 312.25 76.889C312.02 75.785 311.767 74.727 311.491 73.715C311.261 72.657 311.031 71.645 310.801 70.679C310.571 69.667 310.456 68.678 310.456 67.712C310.456 66.47 310.709 65.251 311.215 64.055C311.721 62.813 312.388 61.686 313.216 60.674C314.044 59.616 315.01 58.719 316.114 57.983C317.218 57.247 318.368 56.741 319.564 56.465C320.07 56.603 320.737 57.017 321.565 57.707C322.439 58.351 323.29 59.087 324.118 59.915C324.946 60.743 325.682 61.594 326.326 62.468C326.97 63.296 327.361 63.986 327.499 64.538ZM304.729 96.002C305.833 95.542 306.868 94.875 307.834 94.001C308.846 93.127 309.72 92.138 310.456 91.034C311.192 89.93 311.767 88.757 312.181 87.515C312.641 86.273 312.871 85.054 312.871 83.858C311.951 83.996 310.939 84.433 309.835 85.169C308.731 85.859 307.696 86.71 306.73 87.722C305.764 88.688 304.959 89.7 304.315 90.758C303.671 91.816 303.349 92.736 303.349 93.518C303.349 94.53 303.809 95.358 304.729 96.002ZM327.133 65.573C326.903 65.297 326.696 64.722 326.512 63.848C326.328 62.928 326.236 62.146 326.236 61.502C327.432 61.594 328.582 61.686 329.686 61.778C330.79 61.824 331.802 61.87 332.722 61.916C333.412 60.536 334.148 59.179 334.93 57.845C335.758 56.465 336.54 55.223 337.276 54.119C338.058 52.969 338.771 52.003 339.415 51.221C340.105 50.439 340.634 49.933 341.002 49.703C341.462 49.703 342.037 49.795 342.727 49.979C343.463 50.117 344.199 50.324 344.935 50.6C345.671 50.83 346.338 51.083 346.936 51.359C347.534 51.635 347.948 51.911 348.178 52.187C346.798 53.935 345.602 55.568 344.59 57.086C343.624 58.558 342.566 60.26 341.416 62.192C342.336 62.192 343.256 62.169 344.176 62.123C345.142 62.077 346.108 62.008 347.074 61.916C347.304 62.146 347.488 62.445 347.626 62.813C347.764 63.135 347.833 63.48 347.833 63.848C345.579 64.676 342.842 65.136 339.622 65.228C338.472 67.436 337.437 69.644 336.517 71.852C335.643 74.014 334.884 76.107 334.24 78.131C333.642 80.155 333.159 82.064 332.791 83.858C332.469 85.652 332.308 87.262 332.308 88.688C332.308 90.712 333.067 91.839 334.585 92.069C335.965 91.885 337.276 91.54 338.518 91.034C339.76 90.528 340.864 89.884 341.83 89.102C342.106 89.516 342.267 89.861 342.313 90.137C342.037 90.551 341.554 91.034 340.864 91.586C340.22 92.138 339.507 92.667 338.725 93.173C337.943 93.725 337.184 94.185 336.448 94.553C335.712 94.921 335.16 95.128 334.792 95.174C333.642 95.128 332.492 94.875 331.342 94.415C330.192 93.955 329.134 93.38 328.168 92.69C327.248 92 326.489 91.241 325.891 90.413C325.293 89.539 324.994 88.688 324.994 87.86C324.994 86.756 325.132 85.376 325.408 83.72C325.73 82.018 326.167 80.178 326.719 78.2C327.271 76.222 327.915 74.152 328.651 71.99C329.387 69.828 330.192 67.689 331.066 65.573H327.133ZM341.179 90.62C341.409 89.286 341.8 87.538 342.352 85.376C342.95 83.168 343.64 80.845 344.422 78.407C345.204 75.923 346.032 73.439 346.906 70.955C347.78 68.471 348.631 66.24 349.459 64.262C350.057 62.836 350.586 61.732 351.046 60.95C351.506 60.122 352.012 59.432 352.564 58.88C353.208 58.972 353.875 59.133 354.565 59.363C355.255 59.593 355.922 59.869 356.566 60.191C357.21 60.513 357.785 60.858 358.291 61.226C358.797 61.548 359.188 61.87 359.464 62.192C358.222 63.664 357.118 65.343 356.152 67.229C355.232 69.115 354.289 71.53 353.323 74.474C355.807 72.266 357.992 70.15 359.878 68.126C361.81 66.102 363.604 63.848 365.26 61.364C365.536 61.134 366.019 61.019 366.709 61.019C367.353 61.019 367.974 61.134 368.572 61.364C369.17 61.548 369.584 61.824 369.814 62.192C368.986 64.4 368.572 66.585 368.572 68.747C368.572 70.771 368.871 72.289 369.469 73.301C369.423 73.577 369.101 74.106 368.503 74.888C367.951 75.67 367.33 76.406 366.64 77.096C365.398 76.452 364.294 75.578 363.328 74.474C362.362 73.324 361.649 72.082 361.189 70.748C359.027 72.266 357.187 73.761 355.669 75.233C354.151 76.659 352.84 78.269 351.736 80.063C350.678 81.811 349.758 83.835 348.976 86.135C348.24 88.435 347.527 91.172 346.837 94.346C346.423 94.3 345.917 94.139 345.319 93.863C344.767 93.633 344.192 93.334 343.594 92.966C343.042 92.598 342.536 92.207 342.076 91.793C341.616 91.379 341.317 90.988 341.179 90.62ZM374.321 94.415C371.699 94.139 369.606 92.989 368.042 90.965C366.478 88.941 365.696 86.365 365.696 83.237C365.696 81.397 365.972 79.488 366.524 77.51C367.076 75.532 367.858 73.623 368.87 71.783C369.882 69.897 371.078 68.126 372.458 66.47C373.838 64.814 375.333 63.388 376.943 62.192C379.473 60.306 381.842 59.363 384.05 59.363C385.522 60.145 386.971 61.778 388.397 64.262C388.627 64.262 388.834 64.262 389.018 64.262C389.202 64.216 389.409 64.193 389.639 64.193C392.077 64.193 393.296 66.355 393.296 70.679C393.296 73.577 392.813 76.337 391.847 78.959C390.927 81.535 389.616 83.881 387.914 85.997C386.258 88.113 384.257 89.907 381.911 91.379C379.611 92.805 377.081 93.817 374.321 94.415ZM377.84 72.68C377.058 73.738 376.322 74.888 375.632 76.13C374.942 77.372 374.344 78.637 373.838 79.925C373.332 81.167 372.941 82.386 372.665 83.582C372.389 84.732 372.251 85.767 372.251 86.687C372.251 87.791 372.435 88.849 372.803 89.861C373.171 90.873 373.585 91.448 374.045 91.586C376.115 91.126 378.001 90.275 379.703 89.033C381.451 87.745 382.946 86.158 384.188 84.272C385.476 82.386 386.465 80.247 387.155 77.855C387.891 75.463 388.259 72.91 388.259 70.196C388.259 69 388.19 68.057 388.052 67.367C387.914 66.677 387.684 66.079 387.362 65.573C385.338 66.171 383.521 67.137 381.911 68.471C380.347 69.805 378.99 71.208 377.84 72.68ZM438.193 69.092C436.537 69.092 435.341 68.839 434.605 68.333C433.869 67.781 433.501 66.93 433.501 65.78C433.501 65.044 433.639 64.193 433.915 63.227C434.789 63.365 435.617 63.457 436.399 63.503C437.227 63.549 438.216 63.572 439.366 63.572C440.838 63.572 442.057 63.572 443.023 63.572C444.035 63.526 444.863 63.48 445.507 63.434C446.197 63.388 446.726 63.365 447.094 63.365C447.508 63.319 447.876 63.296 448.198 63.296C449.302 63.296 450.107 63.71 450.613 64.538C451.119 65.32 451.602 66.677 452.062 68.609C450.728 68.471 449.624 68.379 448.75 68.333C447.922 68.287 447.186 68.264 446.542 68.264C446.082 68.264 445.668 68.287 445.3 68.333C444.932 68.333 444.587 68.333 444.265 68.333C442.655 70.909 440.792 73.692 438.676 76.682C436.606 79.626 434.352 82.432 431.914 85.1C429.522 87.768 427.015 90.137 424.393 92.207C421.771 94.323 419.149 95.795 416.527 96.623C414.733 96.439 413.1 96.002 411.628 95.312C410.156 94.622 408.868 93.748 407.764 92.69C406.66 91.678 405.786 90.505 405.142 89.171C404.498 87.791 404.13 86.319 404.038 84.755C404.084 82.593 404.521 80.454 405.349 78.338C406.223 76.176 407.327 74.175 408.661 72.335C409.995 70.495 411.49 68.839 413.146 67.367C414.848 65.895 416.55 64.722 418.252 63.848C416.55 63.112 415.331 62.238 414.595 61.226C413.905 60.214 413.56 59.11 413.56 57.914C413.56 56.258 414.135 54.533 415.285 52.739C416.481 50.899 417.953 49.197 419.701 47.633C421.449 46.069 423.312 44.735 425.29 43.631C427.314 42.481 429.154 41.768 430.81 41.492C431.27 41.584 431.914 41.883 432.742 42.389C433.616 42.849 434.467 43.424 435.295 44.114C436.123 44.804 436.859 45.517 437.503 46.253C438.193 46.943 438.584 47.541 438.676 48.047C438.584 48.599 438.377 49.22 438.055 49.91C437.779 50.6 437.411 51.29 436.951 51.98C436.491 52.624 436.008 53.245 435.502 53.843C434.996 54.441 434.49 54.924 433.984 55.292C433.524 55.154 433.248 54.924 433.156 54.602C433.708 54.05 434.237 53.268 434.743 52.256C435.249 51.198 435.502 50.209 435.502 49.289C435.502 48.783 435.387 48.461 435.157 48.323C434.927 48.139 434.559 48.047 434.053 48.047C432.765 48.047 431.339 48.553 429.775 49.565C428.211 50.577 426.739 51.842 425.359 53.36C424.025 54.878 422.898 56.511 421.978 58.259C421.058 59.961 420.598 61.525 420.598 62.951C421.104 62.997 421.702 63.158 422.392 63.434C423.128 63.664 423.841 63.963 424.531 64.331C425.221 64.699 425.819 65.09 426.325 65.504C426.877 65.918 427.222 66.286 427.36 66.608C425.106 67.16 423.013 68.241 421.081 69.851C419.195 71.461 417.562 73.301 416.182 75.371C414.802 77.441 413.721 79.603 412.939 81.857C412.203 84.111 411.835 86.135 411.835 87.929C411.835 89.539 412.18 90.873 412.87 91.931C413.56 92.943 414.641 93.449 416.113 93.449C417.355 93.449 418.689 93.035 420.115 92.207C421.587 91.425 423.082 90.367 424.6 89.033C426.164 87.653 427.705 86.112 429.223 84.41C430.787 82.662 432.282 80.891 433.708 79.097C435.18 77.257 436.537 75.463 437.779 73.715C439.067 71.921 440.217 70.288 441.229 68.816C440.815 68.908 440.355 68.977 439.849 69.023C439.389 69.069 438.837 69.092 438.193 69.092ZM460.706 78.476C460.706 75.256 461.074 72.105 461.81 69.023C462.592 65.895 463.673 62.951 465.053 60.191C466.433 57.385 468.066 54.832 469.952 52.532C471.884 50.186 473.977 48.162 476.231 46.46C478.531 44.758 480.969 43.447 483.545 42.527C486.121 41.561 488.766 41.078 491.48 41.078C494.654 41.078 497.115 41.745 498.863 43.079C500.657 44.413 501.554 46.276 501.554 48.668C501.554 49.588 501.416 50.531 501.14 51.497C500.91 52.463 500.542 53.429 500.036 54.395C499.576 55.315 499.024 56.212 498.38 57.086C497.736 57.96 497.023 58.719 496.241 59.363C495.045 59.179 494.01 58.65 493.136 57.776C492.262 56.856 491.71 55.798 491.48 54.602C493.09 53.268 494.355 51.888 495.275 50.462C496.241 48.99 496.724 47.656 496.724 46.46C496.724 44.436 495.459 43.424 492.929 43.424C491.871 43.424 490.767 43.654 489.617 44.114C488.513 44.528 487.386 45.126 486.236 45.908C485.086 46.69 483.959 47.633 482.855 48.737C481.797 49.841 480.808 51.06 479.888 52.394C473.494 61.594 470.297 71.001 470.297 80.615C470.297 84.019 470.826 86.756 471.884 88.826C472.942 90.896 474.345 92.115 476.093 92.483C478.071 92.023 480.578 90.758 483.614 88.688C486.65 86.618 489.962 83.927 493.55 80.615C494.01 81.075 494.286 81.558 494.378 82.064C493.044 83.812 491.664 85.491 490.238 87.101C488.812 88.711 487.386 90.183 485.96 91.517C484.58 92.851 483.2 94.024 481.82 95.036C480.486 96.048 479.244 96.83 478.094 97.382C472.39 97.29 468.066 95.657 465.122 92.483C462.178 89.309 460.706 84.64 460.706 78.476ZM518.564 64.124C519.024 64.124 519.553 64.216 520.151 64.4C520.795 64.538 521.37 64.745 521.876 65.021C522.382 65.251 522.796 65.504 523.118 65.78C523.486 66.056 523.67 66.309 523.67 66.539C522.75 68.471 521.899 70.426 521.117 72.404C520.335 74.336 519.668 76.199 519.116 77.993C518.564 79.787 518.127 81.466 517.805 83.03C517.529 84.594 517.391 85.951 517.391 87.101C517.391 88.389 517.529 89.47 517.805 90.344C518.081 91.172 518.541 91.77 519.185 92.138C518.633 92.506 517.92 92.805 517.046 93.035C516.172 93.265 515.39 93.38 514.7 93.38C512.216 93.38 510.974 91.678 510.974 88.274C510.974 85.652 511.848 82.064 513.596 77.51C512.676 79.626 511.618 81.627 510.422 83.513C509.226 85.353 508.007 86.986 506.765 88.412C505.523 89.838 504.258 91.011 502.97 91.931C501.728 92.805 500.578 93.334 499.52 93.518C497.818 93.426 496.438 92.621 495.38 91.103C494.322 89.539 493.793 87.561 493.793 85.169C493.793 82.593 494.345 79.879 495.449 77.027C496.553 74.175 497.956 71.53 499.658 69.092C501.406 66.654 503.292 64.63 505.316 63.02C507.34 61.364 509.295 60.49 511.181 60.398C511.641 60.536 512.147 60.812 512.699 61.226C513.297 61.64 513.849 62.123 514.355 62.675C514.907 63.227 515.367 63.802 515.735 64.4C516.103 64.952 516.31 65.435 516.356 65.849C514.516 66.125 512.607 67.022 510.629 68.54C508.697 70.058 506.926 71.898 505.316 74.06C503.752 76.176 502.464 78.453 501.452 80.891C500.44 83.329 499.934 85.606 499.934 87.722C499.934 88.596 500.256 89.148 500.9 89.378C502.234 89.102 503.775 87.975 505.523 85.997C507.271 83.973 509.387 80.868 511.871 76.682C512.331 75.854 512.837 74.934 513.389 73.922C513.987 72.91 514.585 71.852 515.183 70.748C515.781 69.644 516.356 68.54 516.908 67.436C517.506 66.286 518.058 65.182 518.564 64.124ZM525.469 111.941C524.319 111.481 523.629 110.607 523.399 109.319C523.215 108.077 522.433 107.065 521.053 106.283C521.421 103.937 521.835 101.568 522.295 99.176C522.755 96.784 523.33 94.07 524.02 91.034C524.756 87.952 525.653 84.387 526.711 80.339C527.815 76.245 529.195 71.3 530.851 65.504C529.333 65.504 528.137 65.527 527.263 65.573C526.389 65.619 525.538 65.711 524.71 65.849C524.526 65.665 524.365 65.412 524.227 65.09C524.135 64.768 524.089 64.469 524.089 64.193C524.549 64.009 525.492 63.779 526.918 63.503C528.344 63.181 529.908 62.905 531.61 62.675C532.714 59.179 533.979 56.051 535.405 53.291C536.831 50.485 538.372 48.093 540.028 46.115C541.684 44.137 543.432 42.619 545.272 41.561C547.112 40.503 548.975 39.974 550.861 39.974C551.413 39.974 551.942 40.02 552.448 40.112C552.954 40.158 553.345 40.181 553.621 40.181C554.035 39.859 554.587 39.583 555.277 39.353C555.967 39.077 556.565 38.939 557.071 38.939C557.623 38.939 558.336 39.238 559.21 39.836C558.842 40.48 558.451 41.354 558.037 42.458C557.623 43.562 557.278 44.643 557.002 45.701C555.852 49.105 554.633 51.313 553.345 52.325C552.839 52.325 552.563 51.658 552.517 50.324C552.471 49.358 552.333 48.415 552.103 47.495C551.919 47.081 551.781 46.713 551.689 46.391C551.643 46.069 551.62 45.655 551.62 45.149C551.62 44.873 551.643 44.551 551.689 44.183C551.735 43.769 551.827 43.102 551.965 42.182C551.183 42.182 550.309 42.665 549.343 43.631C548.423 44.597 547.434 45.977 546.376 47.771C545.364 49.519 544.329 51.612 543.271 54.05C542.213 56.488 541.201 59.179 540.235 62.123L546.031 61.916C546.261 62.146 546.445 62.675 546.583 63.503C546.767 64.285 546.882 65.113 546.928 65.987L539.338 65.573C537.59 70.771 535.957 75.739 534.439 80.477C532.921 85.215 531.564 89.585 530.368 93.587C529.172 97.589 528.137 101.154 527.263 104.282C526.435 107.456 525.837 110.009 525.469 111.941ZM565.206 63.434C565.022 66.286 564.516 68.747 563.688 70.817C562.86 72.841 561.664 74.635 560.1 76.199C558.582 77.717 556.719 79.097 554.511 80.339C552.303 81.581 549.727 82.777 546.783 83.927C546.783 84.203 546.76 84.502 546.714 84.824C546.714 85.1 546.714 85.399 546.714 85.721C546.714 86.319 546.76 86.94 546.852 87.584C546.944 88.228 547.105 88.826 547.335 89.378C547.565 89.93 547.887 90.39 548.301 90.758C548.715 91.08 549.244 91.241 549.888 91.241C551.13 91.241 552.349 90.965 553.545 90.413C554.741 89.861 555.868 89.194 556.926 88.412C558.03 87.584 559.042 86.71 559.962 85.79C560.928 84.824 561.779 83.95 562.515 83.168C562.975 83.582 563.366 83.973 563.688 84.341C561.618 87.101 559.341 89.401 556.857 91.241C554.419 93.035 552.096 94.185 549.888 94.691C546.714 94.323 544.23 93.173 542.436 91.241C540.688 89.263 539.814 86.894 539.814 84.134C539.814 82.248 540.067 80.339 540.573 78.407C541.125 76.429 541.861 74.543 542.781 72.749C543.747 70.909 544.851 69.184 546.093 67.574C547.381 65.964 548.738 64.561 550.164 63.365C551.636 62.169 553.131 61.226 554.649 60.536C556.213 59.846 557.754 59.501 559.272 59.501C561.388 59.777 563.366 61.088 565.206 63.434ZM560.445 65.711C559.203 65.895 557.915 66.401 556.581 67.229C555.247 68.057 553.982 69.161 552.786 70.541C551.636 71.921 550.578 73.531 549.612 75.371C548.646 77.211 547.887 79.189 547.335 81.305C551.015 79.465 554.074 77.211 556.512 74.543C558.95 71.829 560.261 68.885 560.445 65.711Z" fill="#483327"/>
</svg>
